<svg xmlns="http://www.w3.org/2000/svg" version="1.1" xmlns:xlink="http://www.w3.org/1999/xlink" xmlns:svgjs="http://svgjs.dev/svgjs" width="1000" height="1000" viewBox="0 0 1000 1000"><rect width="1000" height="1000" fill="#111111"></rect><g transform="matrix(0.7,0,0,0.7,150.22341232105697,202.39187389204204)"><svg viewBox="0 0 290 247" data-background-color="#111111" preserveAspectRatio="xMidYMid meet" height="851" width="1000" xmlns="http://www.w3.org/2000/svg" xmlns:xlink="http://www.w3.org/1999/xlink"><g id="tight-bounds" transform="matrix(1,0,0,1,-0.09255653300931499,-0.10007915888590446)"><svg viewBox="0 0 290.18511306601863 247.2" height="247.2" width="290.18511306601863"><rect width="290.18511306601863" height="247.20036932395953" fill="url(#028a116f-c856-463c-a862-54bff90a46a3)" mask="url(#a5fce9b7-2226-4a0a-9733-604f8979d0c0)" data-fill-palette-color="tertiary"></rect><g><svg viewBox="0 0 290.18511306601863 247.2" height="247.2" width="290.18511306601863"><g><svg viewBox="0 0 290.18511306601863 247.2" height="247.2" width="290.18511306601863"><g id="textblocktransform"><svg viewBox="0 0 290.18511306601863 247.2" height="247.2" width="290.18511306601863" id="textblock"><g><svg viewBox="0 0 290.18511306601863 247.2" height="247.2" width="290.18511306601863"><path d="M289.506 53.02C288.142 27.36 284.253 20.227 284.253 20.227 272.317-6.202 257.419-0.506 244.036 3.292 220.408 3.446 196.875 9.091 173.301 12.119 123.821 12.581 73.918 4.986 24.683 23.717 20.058 29.464-4.798 24.846 0.823 56.304 2.296 69.39 7.671 83.913 7.507 95.922 8.244 98.026 9.267 93.202 9.704 96.23 11.232 104.39 13.728 100.541 15.774 105.365 12.923 118.246 14.97 128.971 16.92 140.21 13.483 143.135 9.076 141.749 7.098 151.449 6.893 158.479 5.788 157.145 4.574 156.837 3.687 156.632 1.9 157.402 2.2 159.608 3.224 167.152-1.169 171.514 1.587 178.904-0.31 186.91 2.896 193.838 2.46 202.511 2.405 204.255 2.705 205.744 3.183 206.154 5.297 208.361 2.214 212.672 2.542 217.342 24.233 249.262 47.766 227.195 69.989 241.872 75.759 231.608 71.421 245.516 73.727 243.36 75.527 240.846 76.837 251.263 78.87 245.362 79.184 243.668 78.706 239.665 79.825 240.435 80.411 240.846 80.93 240.743 81.012 238.382 81.134 234.841 80.057 237.048 79.77 235.201 82.867 225.861 82.103 248.081 85.009 247.158 84.872 244.438 84.027 240.538 85.759 241.051 87.478 237.151 87.533 233.918 89.061 242.693 89.115 244.592 89.388 245.926 89.824 246.85 94.599 237.305 99.347 250.237 104.353 245.926 107.423 241.205 110.37 248.492 113.48 246.696 114.571 245.259 115.677 242.693 116.727 247.004 129.592 247.928 143.302 244.079 155.498 247.158 188.089 241.41 222.918 249.518 257.283 241.923 265.386 238.998 273.804 234.841 281.702 231.506 281.702 231.506 288.101 222.371 288.101 181.316S289.465 145.393 289.669 112.703C289.874 80.013 290.829 78.679 289.465 53.02Z" opacity="1" fill="url(#028a116f-c856-463c-a862-54bff90a46a3)" data-fill-palette-color="tertiary"></path><g transform="matrix(1,0,0,1,55.76832000000002,26.230666666666668)"><svg width="178.6484730660186" viewBox="3.6 -37.1 37.75 41.150000000000006" height="194.73866666666666" data-palette-color="#ffffff"><path d="M24.55-2.9L24.55-2.9Q24.55-5 25.25-8.3 25.95-11.6 27.1-15.35L27.1-15.35Q23.8-15.1 20.48-14.7 17.15-14.3 14.7-14.25L14.7-14.25Q12.45-9 11.13-4.58 9.8-0.15 9.05 4.05L9.05 4.05Q7.15 3.6 5.9 2.48 4.65 1.35 3.6-0.35L3.6-0.35Q4-1.15 4.53-2.4 5.05-3.65 5.78-5.43 6.5-7.2 7.43-9.58 8.35-11.95 9.55-15.1L9.55-15.1Q7.9-15.8 7.35-17.05L7.35-17.05Q7.6-17.25 8.47-17.48 9.35-17.7 10.65-17.95L10.65-17.95 11.3-19.55Q12.35-22.25 13.03-24.1 13.7-25.95 14.18-27.73 14.65-29.5 15.08-31.65 15.5-33.8 16.1-37.1L16.1-37.1Q18.2-36.7 19.93-35.25 21.65-33.8 22.9-31.75L22.9-31.75Q22.45-31.15 21.8-29.95 21.15-28.75 20.38-27.08 19.6-25.4 18.7-23.33 17.8-21.25 16.75-18.95L16.75-18.95Q19.85-19.35 23.03-19.7 26.2-20.05 28.65-20.2L28.65-20.2Q29.55-22.8 30.53-25.28 31.5-27.75 32.45-29.8 33.4-31.85 34.27-33.4 35.15-34.95 35.85-35.7L35.85-35.7Q36.35-35.65 37.18-35.33 38-35 38.85-34.55 39.7-34.1 40.4-33.58 41.1-33.05 41.35-32.6L41.35-32.6Q40.45-31.75 39.55-30.4 38.65-29.05 37.77-27.3 36.9-25.55 36.05-23.5 35.2-21.45 34.45-19.25L34.45-19.25Q35.45-18.35 35.45-17L35.45-17Q35.45-16.05 35.05-15.25L35.05-15.25Q34.6-15.35 34.15-15.38 33.7-15.4 33.2-15.45L33.2-15.45Q32.35-12.75 31.65-10.1 30.95-7.45 30.48-5.05 30-2.65 29.73-0.65 29.45 1.35 29.45 2.7L29.45 2.7Q29.45 3.2 29.48 3.5 29.5 3.8 29.55 4L29.55 4Q28.45 3.95 27.95 3.63 27.45 3.3 27.2 2.93 26.95 2.55 26.75 2.18 26.55 1.8 26.1 1.6L26.1 1.6Q25.75 1.45 25.45 0.9 25.15 0.35 24.95-0.35 24.75-1.05 24.65-1.75 24.55-2.45 24.55-2.9Z" opacity="1" transform="matrix(1,0,0,1,0,0)" fill="#ffffff" class="wordmark-text-0" data-fill-palette-color="quaternary" id="text-0"></path></svg></g></svg></g></svg></g></svg></g><g></g></svg></g><defs></defs><mask id="a5fce9b7-2226-4a0a-9733-604f8979d0c0"><g id="SvgjsG1017"><svg viewBox="0 0 290.18511306601863 247.2" height="247.2" width="290.18511306601863"><g><svg viewBox="0 0 290.18511306601863 247.2" height="247.2" width="290.18511306601863"><g><svg viewBox="0 0 290.18511306601863 247.2" height="247.2" width="290.18511306601863"><g id="SvgjsG1016"><svg viewBox="0 0 290.18511306601863 247.2" height="247.2" width="290.18511306601863" id="SvgjsSvg1015"><g><svg viewBox="0 0 290.18511306601863 247.2" height="247.2" width="290.18511306601863"><path d="M289.506 53.02C288.142 27.36 284.253 20.227 284.253 20.227 272.317-6.202 257.419-0.506 244.036 3.292 220.408 3.446 196.875 9.091 173.301 12.119 123.821 12.581 73.918 4.986 24.683 23.717 20.058 29.464-4.798 24.846 0.823 56.304 2.296 69.39 7.671 83.913 7.507 95.922 8.244 98.026 9.267 93.202 9.704 96.23 11.232 104.39 13.728 100.541 15.774 105.365 12.923 118.246 14.97 128.971 16.92 140.21 13.483 143.135 9.076 141.749 7.098 151.449 6.893 158.479 5.788 157.145 4.574 156.837 3.687 156.632 1.9 157.402 2.2 159.608 3.224 167.152-1.169 171.514 1.587 178.904-0.31 186.91 2.896 193.838 2.46 202.511 2.405 204.255 2.705 205.744 3.183 206.154 5.297 208.361 2.214 212.672 2.542 217.342 24.233 249.262 47.766 227.195 69.989 241.872 75.759 231.608 71.421 245.516 73.727 243.36 75.527 240.846 76.837 251.263 78.87 245.362 79.184 243.668 78.706 239.665 79.825 240.435 80.411 240.846 80.93 240.743 81.012 238.382 81.134 234.841 80.057 237.048 79.77 235.201 82.867 225.861 82.103 248.081 85.009 247.158 84.872 244.438 84.027 240.538 85.759 241.051 87.478 237.151 87.533 233.918 89.061 242.693 89.115 244.592 89.388 245.926 89.824 246.85 94.599 237.305 99.347 250.237 104.353 245.926 107.423 241.205 110.37 248.492 113.48 246.696 114.571 245.259 115.677 242.693 116.727 247.004 129.592 247.928 143.302 244.079 155.498 247.158 188.089 241.41 222.918 249.518 257.283 241.923 265.386 238.998 273.804 234.841 281.702 231.506 281.702 231.506 288.101 222.371 288.101 181.316S289.465 145.393 289.669 112.703C289.874 80.013 290.829 78.679 289.465 53.02Z" opacity="1" fill="white"></path><g transform="matrix(1,0,0,1,55.76832000000002,26.230666666666668)"><svg width="178.6484730660186" viewBox="3.6 -37.1 37.75 41.150000000000006" height="194.73866666666666" data-palette-color="#ffffff"></svg></g></svg></g></svg></g></svg></g><g></g></svg></g><defs><mask></mask></defs></svg></g></mask><linearGradient x1="0.054" x2="0.941" y1="0.5" y2="0.5" id="028a116f-c856-463c-a862-54bff90a46a3"><stop stop-color="#0f3054" offset="0"></stop><stop stop-color="#3b8dcb" offset="0.498"></stop><stop stop-color="#0f3054" offset="1"></stop></linearGradient></svg><rect width="290.18511306601863" height="247.2" fill="none" stroke="none" visibility="hidden"></rect></g></svg></g></svg>